RobotoSerifMicroCond-Regular Italic 04fz.ufo
<glyph name="C" format="2">
  <advance width="625"/>
  <unicode hex="0043"/>
  <anchor x="338" y="741" name="top"/>
  <anchor x="338" y="0" name="bottom"/>
  <outline>
    <contour>
      <point x="368" y="677" type="curve" smooth="yes"/>
      <point x="452" y="677"/>
      <point x="504" y="618"/>
      <point x="512" y="465" type="curve"/>
      <point x="575" y="465" type="line"/>
      <point x="639" y="720" type="line"/>
      <point x="574" y="720" type="line"/>
      <point x="521" y="549" type="line"/>
      <point x="538" y="509" type="line"/>
      <point x="536" y="679"/>
      <point x="469" y="733"/>
      <point x="367" y="733" type="curve" smooth="yes"/>
      <point x="161" y="733"/>
      <point x="43" y="501"/>
      <point x="43" y="271" type="curve" smooth="yes"/>
      <point x="43" y="85"/>
      <point x="137" y="-23"/>
      <point x="278" y="-23" type="curve" smooth="yes"/>
      <point x="411" y="-23"/>
      <point x="483" y="70"/>
      <point x="543" y="205" type="curve"/>
      <point x="494" y="231" type="line"/>
      <point x="445" y="125"/>
      <point x="394" y="33"/>
      <point x="285" y="33" type="curve" smooth="yes"/>
      <point x="192" y="33"/>
      <point x="140" y="105"/>
      <point x="140" y="254" type="curve" smooth="yes"/>
      <point x="140" y="434"/>
      <point x="202" y="677"/>
    </contour>
  </outline>
</glyph>
<glyph name="F" format="2">
  <advance width="579"/>
  <unicode hex="0046"/>
  <outline>
    <contour>
      <point x="-25" y="0" type="line"/>
      <point x="231" y="0" type="line"/>
      <point x="246" y="56" type="line"/>
      <point x="230" y="56" type="line" smooth="yes"/>
      <point x="192" y="56"/>
      <point x="155" y="59"/>
      <point x="158" y="66" type="curve" smooth="yes"/>
      <point x="305" y="656" type="line"/>
      <point x="433" y="656" type="line" smooth="yes"/>
      <point x="501" y="656"/>
      <point x="524" y="647"/>
      <point x="521" y="611" type="curve" smooth="yes"/>
      <point x="513" y="512" type="line"/>
      <point x="570" y="512" type="line"/>
      <point x="616" y="710" type="line"/>
      <point x="153" y="710" type="line"/>
      <point x="139" y="654" type="line"/>
      <point x="148" y="654" type="line" smooth="yes"/>
      <point x="187" y="654"/>
      <point x="212" y="647"/>
      <point x="205" y="618" type="curve" smooth="yes"/>
      <point x="74" y="92" type="line" smooth="yes"/>
      <point x="68" y="63"/>
      <point x="37" y="56"/>
      <point x="-1" y="56" type="curve" smooth="yes"/>
      <point x="-10" y="56" type="line"/>
    </contour>
    <contour>
      <point x="226" y="389" type="curve"/>
      <point x="211" y="339" type="line"/>
      <point x="284" y="335"/>
      <point x="359" y="331"/>
      <point x="433" y="327" type="curve"/>
      <point x="451" y="402" type="line"/>
      <point x="377" y="398"/>
      <point x="301" y="393"/>
    </contour>
  </outline>
</glyph>
<glyph name="J" format="2">
  <advance width="591"/>
  <unicode hex="004A"/>
  <anchor x="409" y="741" name="top"/>
  <outline>
    <contour>
      <point x="422" y="618" type="curve" smooth="yes"/>
      <point x="316" y="193" type="line" smooth="yes"/>
      <point x="282" y="58"/>
      <point x="255" y="31"/>
      <point x="185" y="31" type="curve" smooth="yes"/>
      <point x="126" y="31"/>
      <point x="83" y="64"/>
      <point x="61" y="106" type="curve"/>
      <point x="34" y="125"/>
      <point x="39" y="62"/>
      <point x="81" y="50" type="curve"/>
      <point x="125" y="221" type="line"/>
      <point x="30" y="221" type="line"/>
      <point x="-9" y="64" type="line"/>
      <point x="14" y="41"/>
      <point x="76" y="-25"/>
      <point x="190" y="-25" type="curve" smooth="yes"/>
      <point x="301" y="-25"/>
      <point x="367" y="32"/>
      <point x="405" y="186" type="curve" smooth="yes"/>
      <point x="513" y="618" type="line" smooth="yes"/>
      <point x="520" y="647"/>
      <point x="550" y="654"/>
      <point x="590" y="654" type="curve" smooth="yes"/>
      <point x="606" y="654" type="line"/>
      <point x="621" y="710" type="line"/>
      <point x="361" y="710" type="line"/>
      <point x="347" y="654" type="line"/>
      <point x="363" y="654" type="line" smooth="yes"/>
      <point x="402" y="654"/>
      <point x="429" y="647"/>
    </contour>
  </outline>
</glyph>
<glyph name="K" format="2">
  <advance width="693"/>
  <unicode hex="004B"/>
  <anchor x="336" y="741" name="top"/>
  <anchor x="336" y="0" name="bottom"/>
  <outline>
    <contour>
      <point x="-25" y="0" type="line"/>
      <point x="210" y="0" type="line"/>
      <point x="225" y="56" type="line"/>
      <point x="218" y="56" type="line" smooth="yes"/>
      <point x="193" y="56"/>
      <point x="155" y="59"/>
      <point x="158" y="66" type="curve" smooth="yes"/>
      <point x="302" y="644" type="line" smooth="yes"/>
      <point x="304" y="651"/>
      <point x="344" y="654"/>
      <point x="372" y="654" type="curve" smooth="yes"/>
      <point x="380" y="654" type="line"/>
      <point x="394" y="710" type="line"/>
      <point x="153" y="710" type="line"/>
      <point x="139" y="654" type="line"/>
      <point x="148" y="654" type="line" smooth="yes"/>
      <point x="187" y="654"/>
      <point x="212" y="647"/>
      <point x="205" y="618" type="curve" smooth="yes"/>
      <point x="74" y="92" type="line" smooth="yes"/>
      <point x="68" y="63"/>
      <point x="37" y="56"/>
      <point x="-1" y="56" type="curve" smooth="yes"/>
      <point x="-10" y="56" type="line"/>
    </contour>
    <contour>
      <point x="325" y="0" type="line"/>
      <point x="572" y="0" type="line"/>
      <point x="587" y="56" type="line"/>
      <point x="571" y="56" type="line" smooth="yes"/>
      <point x="539" y="56"/>
      <point x="519" y="57"/>
      <point x="507" y="79" type="curve" smooth="yes"/>
      <point x="339" y="393" type="line"/>
      <point x="323" y="344" type="line"/>
      <point x="608" y="625" type="line" smooth="yes"/>
      <point x="630" y="647"/>
      <point x="648" y="654"/>
      <point x="681" y="654" type="curve" smooth="yes"/>
      <point x="698" y="654" type="line"/>
      <point x="712" y="710" type="line"/>
      <point x="493" y="710" type="line"/>
      <point x="479" y="654" type="line"/>
      <point x="488" y="654" type="line" smooth="yes"/>
      <point x="521" y="654"/>
      <point x="550" y="650"/>
      <point x="549" y="643" type="curve"/>
      <point x="273" y="370" type="line"/>
      <point x="266" y="349" type="line"/>
      <point x="416" y="66" type="line"/>
      <point x="414" y="59"/>
      <point x="381" y="56"/>
      <point x="348" y="56" type="curve" smooth="yes"/>
      <point x="340" y="56" type="line"/>
    </contour>
  </outline>
</glyph>
<glyph name="O" format="2">
  <advance width="662"/>
  <unicode hex="004F"/>
  <anchor x="330" y="741" name="top"/>
  <anchor x="330" y="0" name="bottom"/>
  <outline>
    <contour>
      <point x="500" y="-25"/>
      <point x="622" y="257"/>
      <point x="622" y="471" type="curve" smooth="yes"/>
      <point x="622" y="619"/>
      <point x="558" y="735"/>
      <point x="403" y="735" type="curve" smooth="yes"/>
      <point x="165" y="735"/>
      <point x="43" y="453"/>
      <point x="43" y="239" type="curve" smooth="yes"/>
      <point x="43" y="91"/>
      <point x="107" y="-25"/>
      <point x="262" y="-25" type="curve" smooth="yes"/>
    </contour>
    <contour>
      <point x="270" y="31" type="curve" smooth="yes"/>
      <point x="174" y="31"/>
      <point x="136" y="103"/>
      <point x="136" y="211" type="curve" smooth="yes"/>
      <point x="136" y="251"/>
      <point x="142" y="321"/>
      <point x="162" y="397" type="curve" smooth="yes"/>
      <point x="213" y="591"/>
      <point x="293" y="679"/>
      <point x="396" y="679" type="curve" smooth="yes"/>
      <point x="490" y="679"/>
      <point x="529" y="609"/>
      <point x="529" y="501" type="curve" smooth="yes"/>
      <point x="529" y="461"/>
      <point x="522" y="389"/>
      <point x="503" y="313" type="curve" smooth="yes"/>
      <point x="450" y="119"/>
      <point x="372" y="31"/>
    </contour>
  </outline>
</glyph>
<glyph name="X" format="2">
  <advance width="669"/>
  <unicode hex="0058"/>
  <outline>
    <contour>
      <point x="130" y="654" type="line"/>
      <point x="141" y="654" type="line" smooth="yes"/>
      <point x="170" y="654"/>
      <point x="185" y="651"/>
      <point x="196" y="620" type="curve"/>
      <point x="293" y="346" type="line"/>
      <point x="301" y="342" type="line"/>
      <point x="394" y="66" type="line"/>
      <point x="393" y="59"/>
      <point x="356" y="56"/>
      <point x="328" y="56" type="curve" smooth="yes"/>
      <point x="314" y="56" type="line"/>
      <point x="299" y="0" type="line"/>
      <point x="539" y="0" type="line"/>
      <point x="554" y="56" type="line"/>
      <point x="535" y="56" type="line" smooth="yes"/>
      <point x="501" y="56"/>
      <point x="486" y="60"/>
      <point x="474" y="95" type="curve"/>
      <point x="376" y="382" type="line"/>
      <point x="368" y="392" type="line"/>
      <point x="277" y="645" type="line"/>
      <point x="279" y="651"/>
      <point x="318" y="654"/>
      <point x="348" y="654" type="curve" smooth="yes"/>
      <point x="361" y="654" type="line"/>
      <point x="376" y="710" type="line"/>
      <point x="144" y="710" type="line"/>
    </contour>
    <contour>
      <point x="-46" y="0" type="line"/>
      <point x="167" y="0" type="line"/>
      <point x="182" y="56" type="line"/>
      <point x="167" y="56" type="line" smooth="yes"/>
      <point x="140" y="56"/>
      <point x="110" y="64"/>
      <point x="111" y="73" type="curve"/>
      <point x="336" y="333" type="line"/>
      <point x="303" y="378" type="line"/>
      <point x="63" y="102" type="line" smooth="yes"/>
      <point x="31" y="65"/>
      <point x="13" y="56"/>
      <point x="-16" y="56" type="curve" smooth="yes"/>
      <point x="-31" y="56" type="line"/>
    </contour>
    <contour>
      <point x="368" y="346" type="line"/>
      <point x="591" y="609" type="line" smooth="yes"/>
      <point x="622" y="646"/>
      <point x="642" y="654"/>
      <point x="670" y="654" type="curve" smooth="yes"/>
      <point x="681" y="654" type="line"/>
      <point x="696" y="710" type="line"/>
      <point x="486" y="710" type="line"/>
      <point x="471" y="654" type="line"/>
      <point x="483" y="654" type="line" smooth="yes"/>
      <point x="512" y="654"/>
      <point x="546" y="647"/>
      <point x="545" y="637" type="curve"/>
      <point x="340" y="392" type="line"/>
    </contour>
  </outline>
</glyph>
<glyph name="e" format="2">
  <advance width="493"/>
  <unicode hex="0065"/>
  <anchor x="250" y="565" name="top"/>
  <anchor x="414" y="1" name="right"/>
  <anchor x="272" y="0" name="bottom"/>
  <outline>
    <contour>
      <point x="225" y="-13" type="curve" smooth="yes"/>
      <point x="317" y="-13"/>
      <point x="379" y="39"/>
      <point x="430" y="114" type="curve"/>
      <point x="387" y="143" type="line"/>
      <point x="352" y="89"/>
      <point x="309" y="43"/>
      <point x="238" y="43" type="curve" smooth="yes"/>
      <point x="168" y="43"/>
      <point x="124" y="87"/>
      <point x="124" y="191" type="curve" smooth="yes"/>
      <point x="124" y="363"/>
      <point x="200" y="519"/>
      <point x="309" y="519" type="curve" smooth="yes"/>
      <point x="353" y="519"/>
      <point x="379" y="495"/>
      <point x="379" y="444" type="curve" smooth="yes"/>
      <point x="379" y="343"/>
      <point x="309" y="283"/>
      <point x="114" y="278" type="curve"/>
      <point x="109" y="225" type="line"/>
      <point x="348" y="228"/>
      <point x="463" y="313"/>
      <point x="463" y="448" type="curve" smooth="yes"/>
      <point x="463" y="522"/>
      <point x="415" y="575"/>
      <point x="316" y="575" type="curve" smooth="yes"/>
      <point x="155" y="575"/>
      <point x="37" y="397"/>
      <point x="37" y="196" type="curve" smooth="yes"/>
      <point x="37" y="67"/>
      <point x="109" y="-13"/>
    </contour>
  </outline>
</glyph>
<glyph name="F.alt" format="2">
  <advance width="577"/>
  <outline>
    <contour>
      <point x="305" y="656" type="line"/>
      <point x="432" y="656" type="line" smooth="yes"/>
      <point x="498" y="656"/>
      <point x="522" y="647"/>
      <point x="519" y="611" type="curve" smooth="yes"/>
      <point x="511" y="515" type="line"/>
      <point x="569" y="515" type="line"/>
      <point x="614" y="710" type="line"/>
      <point x="153" y="710" type="line"/>
      <point x="139" y="654" type="line"/>
      <point x="148" y="654" type="line" smooth="yes"/>
      <point x="187" y="654"/>
      <point x="212" y="647"/>
      <point x="205" y="618" type="curve" smooth="yes"/>
      <point x="74" y="92" type="line" smooth="yes"/>
      <point x="67" y="63"/>
      <point x="37" y="56"/>
      <point x="-2" y="56" type="curve" smooth="yes"/>
      <point x="-10" y="56" type="line"/>
      <point x="-25" y="0" type="line"/>
      <point x="230" y="0" type="line"/>
      <point x="246" y="56" type="line"/>
      <point x="229" y="56" type="line" smooth="yes"/>
      <point x="192" y="56"/>
      <point x="156" y="59"/>
      <point x="158" y="66" type="curve" smooth="yes"/>
    </contour>
    <contour>
      <point x="212" y="374" type="line"/>
      <point x="196" y="322" type="line"/>
      <point x="336" y="322" type="line" smooth="yes"/>
      <point x="360" y="322"/>
      <point x="362" y="297"/>
      <point x="354" y="263" type="curve" smooth="yes"/>
      <point x="349" y="243" type="line"/>
      <point x="405" y="243" type="line"/>
      <point x="459" y="454" type="line"/>
      <point x="402" y="454" type="line"/>
      <point x="397" y="434" type="line" smooth="yes"/>
      <point x="388" y="399"/>
      <point x="375" y="374"/>
      <point x="352" y="374" type="curve" smooth="yes"/>
    </contour>
  </outline>
</glyph>
<glyph name="ampersand" format="2">
  <advance width="670"/>
  <outline>
    <contour>
      <point x="548" y="0" type="line"/>
      <point x="562" y="56" type="line"/>
      <point x="530" y="56" type="line" smooth="yes"/>
      <point x="493" y="56"/>
      <point x="479" y="66"/>
      <point x="451" y="104" type="curve" smooth="yes"/>
      <point x="291" y="316"/>
      <point x="291" y="423"/>
      <point x="291" y="518" type="curve" smooth="yes"/>
      <point x="291" y="618"/>
      <point x="314" y="666"/>
      <point x="379" y="666" type="curve" smooth="yes"/>
      <point x="428" y="666"/>
      <point x="445" y="639"/>
      <point x="445" y="581" type="curve" smooth="yes"/>
      <point x="445" y="485"/>
      <point x="403" y="458"/>
      <point x="278" y="430" type="curve"/>
      <point x="289" y="389" type="line"/>
      <point x="431" y="415"/>
      <point x="527" y="467"/>
      <point x="527" y="584" type="curve" smooth="yes"/>
      <point x="527" y="667"/>
      <point x="475" y="718"/>
      <point x="382" y="718" type="curve" smooth="yes"/>
      <point x="266" y="718"/>
      <point x="205" y="637"/>
      <point x="205" y="516" type="curve" smooth="yes"/>
      <point x="205" y="395"/>
      <point x="234" y="266"/>
      <point x="419" y="0" type="curve"/>
    </contour>
    <contour>
      <point x="239" y="49" type="curve" smooth="yes"/>
      <point x="152" y="49"/>
      <point x="115" y="95"/>
      <point x="115" y="195" type="curve" smooth="yes"/>
      <point x="115" y="295"/>
      <point x="165" y="366"/>
      <point x="254" y="385" type="curve"/>
      <point x="243" y="426" type="line"/>
      <point x="118" y="405"/>
      <point x="18" y="324"/>
      <point x="18" y="191" type="curve" smooth="yes"/>
      <point x="18" y="68"/>
      <point x="85" y="-10"/>
      <point x="219" y="-10" type="curve" smooth="yes"/>
      <point x="413" y="-10"/>
      <point x="524" y="200"/>
      <point x="570" y="306" type="curve" smooth="yes"/>
      <point x="585" y="341"/>
      <point x="600" y="347"/>
      <point x="636" y="347" type="curve" smooth="yes"/>
      <point x="644" y="347" type="line"/>
      <point x="658" y="403" type="line"/>
      <point x="475" y="403" type="line"/>
      <point x="461" y="347" type="line"/>
      <point x="469" y="347" type="line" smooth="yes"/>
      <point x="487" y="347"/>
      <point x="517" y="344"/>
      <point x="516" y="337" type="curve"/>
      <point x="510" y="241"/>
      <point x="374" y="49"/>
    </contour>
  </outline>
</glyph>
<glyph name="bar" format="2">
  <advance width="309"/>
  <outline>
    <contour>
      <point x="121" y="780" type="line"/>
      <point x="121" y="-158" type="line"/>
      <point x="188" y="-158" type="line"/>
      <point x="188" y="780" type="line"/>
    </contour>
  </outline>
</glyph>
<glyph name="five" format="2">
  <advance width="560"/>
  <guideline x="0" y="-58" angle="0" identifier="KeDWNeKoGY"/>
  <guideline x="0" y="667" angle="0" identifier="DNGISfr8af"/>
  <outline>
    <contour>
      <point x="225" y="-58" type="curve" smooth="yes"/>
      <point x="398" y="-58"/>
      <point x="487" y="86"/>
      <point x="487" y="251" type="curve" smooth="yes"/>
      <point x="487" y="362"/>
      <point x="419" y="424"/>
      <point x="320" y="424" type="curve" smooth="yes"/>
      <point x="232.20833333333331" y="424.0"/>
      <point x="172.40881216298868" y="378.5778265110006"/>
      <point x="124" y="290" type="curve"/>
      <point x="148" y="306" type="line"/>
      <point x="233" y="647" type="line"/>
      <point x="198" y="596" type="line"/>
      <point x="500" y="596" type="line"/>
      <point x="541" y="667" type="line"/>
      <point x="179" y="667" type="line"/>
      <point x="80" y="270" type="line"/>
      <point x="138" y="270" type="line"/>
      <point x="182.25647012236567" y="334.8408748304428"/>
      <point x="239.0" y="368.0"/>
      <point x="299" y="368" type="curve" smooth="yes"/>
      <point x="365.6170212765957" y="368.0"/>
      <point x="400.0" y="327.0"/>
      <point x="400" y="256" type="curve" smooth="yes"/>
      <point x="400.0" y="112.0"/>
      <point x="348.94610778443115" y="-2.0"/>
      <point x="226" y="-2" type="curve" smooth="yes"/>
      <point x="112.54088050314466" y="-2.0"/>
      <point x="78.81228067929153" y="73.77296190879959"/>
      <point x="62" y="143" type="curve"/>
      <point x="4" y="115" type="line"/>
      <point x="28" y="19"/>
      <point x="88" y="-58"/>
    </contour>
  </outline>
</glyph>
<glyph name="horizontalbar" format="2">
  <advance width="817"/>
  <outline>
    <contour>
      <point x="14" y="345" type="line"/>
      <point x="-1" y="285" type="line"/>
      <point x="803" y="285" type="line"/>
      <point x="818" y="345" type="line"/>
    </contour>
  </outline>
</glyph>
<glyph name="nine.lintab" format="2">
  <advance width="560"/>
  <outline>
    <contour>
      <point x="320" y="735" type="curve" smooth="yes"/>
      <point x="459" y="735"/>
      <point x="526" y="661"/>
      <point x="526" y="528" type="curve" smooth="yes"/>
      <point x="526" y="251"/>
      <point x="382" y="-3"/>
      <point x="-6" y="-15" type="curve"/>
      <point x="0" y="39" type="line"/>
      <point x="311" y="45"/>
      <point x="403" y="240"/>
      <point x="429" y="408" type="curve" smooth="yes"/>
      <point x="436.0" y="457.0"/>
      <point x="438.0" y="503.0"/>
      <point x="438" y="541" type="curve" smooth="yes"/>
      <point x="438.0" y="636"/>
      <point x="399.0" y="679.0"/>
      <point x="317" y="679" type="curve" smooth="yes"/>
      <point x="231" y="679.0"/>
      <point x="177" y="614"/>
      <point x="155" y="525" type="curve" smooth="yes"/>
      <point x="148" y="496"/>
      <point x="145" y="465"/>
      <point x="145" y="433" type="curve" smooth="yes"/>
      <point x="145.0" y="365"/>
      <point x="179.0" y="323.0"/>
      <point x="240" y="323" type="curve" smooth="yes"/>
      <point x="309.0" y="323.0"/>
      <point x="361" y="355"/>
      <point x="444" y="478" type="curve"/>
      <point x="450" y="425" type="line"/>
      <point x="376" y="318"/>
      <point x="320.0" y="267.0"/>
      <point x="207" y="267" type="curve" smooth="yes"/>
      <point x="108" y="267"/>
      <point x="55" y="333"/>
      <point x="55" y="437" type="curve" smooth="yes"/>
      <point x="55" y="581"/>
      <point x="143" y="735"/>
    </contour>
  </outline>
</glyph>
<glyph name="nine.oldprop" format="2">
  <advance width="515"/>
  <outline>
    <contour>
      <point x="299" y="649" type="curve" smooth="yes"/>
      <point x="424" y="649"/>
      <point x="485" y="575"/>
      <point x="485" y="442" type="curve" smooth="yes"/>
      <point x="485" y="165"/>
      <point x="328" y="-90"/>
      <point x="13" y="-101" type="curve"/>
      <point x="19" y="-47" type="line"/>
      <point x="258" y="-42"/>
      <point x="362" y="155"/>
      <point x="388" y="322" type="curve" smooth="yes"/>
      <point x="395" y="371"/>
      <point x="397" y="417"/>
      <point x="397" y="455" type="curve" smooth="yes"/>
      <point x="397" y="550"/>
      <point x="365" y="593"/>
      <point x="296" y="593" type="curve" smooth="yes"/>
      <point x="221" y="593"/>
      <point x="176" y="527"/>
      <point x="154" y="439" type="curve" smooth="yes"/>
      <point x="147" y="410"/>
      <point x="144" y="379"/>
      <point x="144" y="347" type="curve" smooth="yes"/>
      <point x="144" y="279"/>
      <point x="171" y="237"/>
      <point x="219" y="237" type="curve" smooth="yes"/>
      <point x="281" y="237"/>
      <point x="322" y="271"/>
      <point x="403" y="392" type="curve"/>
      <point x="409" y="339" type="line"/>
      <point x="336" y="234"/>
      <point x="289" y="181"/>
      <point x="186" y="181" type="curve" smooth="yes"/>
      <point x="100" y="181"/>
      <point x="54" y="247"/>
      <point x="54" y="351" type="curve" smooth="yes"/>
      <point x="54" y="495"/>
      <point x="135" y="649"/>
    </contour>
  </outline>
</glyph>
<glyph name="seven.lintab" format="2">
  <advance width="560"/>
  <outline>
    <contour>
      <point x="269" y="638.0" type="line" smooth="yes"/>
      <point x="196.3777777777778" y="638.0"/>
      <point x="166.47963897962373" y="630.5868808368335"/>
      <point x="155" y="595.0" type="curve" smooth="yes"/>
      <point x="125" y="502.0" type="line"/>
      <point x="70" y="502.0" type="line"/>
      <point x="121" y="710.0" type="line"/>
      <point x="593" y="710.0" type="line"/>
      <point x="574" y="635.0" type="line"/>
      <point x="397.22858463024977" y="466.2636489652384"/>
      <point x="282.60621177589974" y="340.1797827686605"/>
      <point x="188" y="0.0" type="curve"/>
      <point x="94" y="0.0" type="line"/>
      <point x="191.05365701534186" y="333.1842039805035"/>
      <point x="435.43782676995414" y="581.6083737049119"/>
      <point x="525" y="644.0" type="curve"/>
      <point x="529" y="638.0" type="line"/>
    </contour>
  </outline>
</glyph>
<glyph name="six.oldprop" format="2">
  <advance width="525"/>
  <outline>
    <contour>
      <point x="222" y="-10" type="curve" smooth="yes"/>
      <point x="384" y="-10"/>
      <point x="462" y="141"/>
      <point x="462" y="294" type="curve" smooth="yes"/>
      <point x="462" y="401"/>
      <point x="416" y="468"/>
      <point x="325" y="468" type="curve" smooth="yes"/>
      <point x="232" y="468"/>
      <point x="180" y="420"/>
      <point x="117" y="320" type="curve"/>
      <point x="113" y="253" type="line"/>
      <point x="193" y="380"/>
      <point x="235" y="412"/>
      <point x="297" y="412" type="curve" smooth="yes"/>
      <point x="345" y="412"/>
      <point x="372" y="369"/>
      <point x="372" y="299" type="curve" smooth="yes"/>
      <point x="372" y="254"/>
      <point x="366" y="212"/>
      <point x="355" y="176" type="curve" smooth="yes"/>
      <point x="330" y="99"/>
      <point x="292" y="46"/>
      <point x="224" y="46" type="curve" smooth="yes"/>
      <point x="156" y="46"/>
      <point x="119" y="96"/>
      <point x="119" y="187" type="curve" smooth="yes"/>
      <point x="119" y="233"/>
      <point x="123" y="302"/>
      <point x="142" y="372" type="curve" smooth="yes"/>
      <point x="182" y="521"/>
      <point x="292" y="681"/>
      <point x="506" y="686" type="curve"/>
      <point x="513" y="740" type="line"/>
      <point x="186" y="729"/>
      <point x="31" y="454"/>
      <point x="31" y="199" type="curve" smooth="yes"/>
      <point x="31" y="71"/>
      <point x="100" y="-10"/>
    </contour>
  </outline>
</glyph>
<glyph name="slash" format="2">
  <advance width="511"/>
  <outline>
    <contour>
      <point x="496" y="780" type="line"/>
      <point x="-63" y="-158" type="line"/>
      <point x="15" y="-158" type="line"/>
      <point x="574" y="780" type="line"/>
    </contour>
  </outline>
</glyph>
<glyph name="zero.lintab" format="2">
  <advance width="560"/>
  <outline>
    <contour>
      <point x="228" y="-11" type="curve" smooth="yes"/>
      <point x="440.0" y="-11.0"/>
      <point x="530.0" y="285.0"/>
      <point x="530" y="503" type="curve" smooth="yes"/>
      <point x="530" y="642"/>
      <point x="459" y="735"/>
      <point x="331" y="735" type="curve" smooth="yes"/>
      <point x="119.0" y="735.0"/>
      <point x="29" y="439.0"/>
      <point x="29" y="221" type="curve" smooth="yes"/>
      <point x="29" y="82"/>
      <point x="100" y="-11"/>
    </contour>
    <contour>
      <point x="228" y="38" type="curve" smooth="yes"/>
      <point x="151.0" y="38.0"/>
      <point x="119.0" y="84.8695652173913"/>
      <point x="119" y="185" type="curve" smooth="yes"/>
      <point x="119" y="237"/>
      <point x="126" y="298"/>
      <point x="142" y="380" type="curve" smooth="yes"/>
      <point x="181.1029531604997" y="581.6889163015247"/>
      <point x="237.0" y="686.0"/>
      <point x="331" y="686" type="curve" smooth="yes"/>
      <point x="408.0" y="686.0"/>
      <point x="440.0" y="639.1304347826087"/>
      <point x="440" y="539" type="curve" smooth="yes"/>
      <point x="440" y="487"/>
      <point x="433" y="426"/>
      <point x="417" y="344" type="curve" smooth="yes"/>
      <point x="377.8970468395003" y="142.31108369847524"/>
      <point x="322.0" y="38.0"/>
    </contour>
  </outline>
</glyph>
<glyph name="zero.oldtab" format="2">
  <advance width="560"/>
  <guideline x="0" y="649" angle="0" identifier="tAGEznvrvd"/>
  <guideline x="0" y="591" angle="0" identifier="aY1e2kkwdB"/>
  <outline>
    <contour>
      <point x="518" y="418" type="curve" smooth="yes"/>
      <point x="518.0" y="564.0"/>
      <point x="446" y="649"/>
      <point x="322" y="649" type="curve"/>
      <point x="130.0" y="649.0"/>
      <point x="43" y="411"/>
      <point x="43" y="220" type="curve" smooth="yes"/>
      <point x="43" y="74.0"/>
      <point x="115" y="-11"/>
      <point x="239" y="-11" type="curve"/>
      <point x="431.0" y="-11.0"/>
      <point x="518" y="227"/>
    </contour>
    <contour>
      <point x="133" y="187" type="curve" smooth="yes"/>
      <point x="133.0" y="230.0"/>
      <point x="140" y="280"/>
      <point x="151" y="337" type="curve" smooth="yes"/>
      <point x="187.1916586996928" y="514.8561513242046"/>
      <point x="229.0" y="600.0"/>
      <point x="314" y="600" type="curve" smooth="yes"/>
      <point x="395.0" y="600.0"/>
      <point x="428.0" y="552.1071428571429"/>
      <point x="428" y="451" type="curve" smooth="yes"/>
      <point x="428.0" y="408.0"/>
      <point x="422" y="358"/>
      <point x="410" y="301" type="curve" smooth="yes"/>
      <point x="374.8478718283949" y="123.17158689658584"/>
      <point x="332.0" y="38.0"/>
      <point x="247" y="38" type="curve" smooth="yes"/>
      <point x="166.0" y="38.0"/>
      <point x="133.0" y="85.89285714285714"/>
    </contour>
  </outline>
</glyph>
<glyph name="zero.slash" format="2">
  <advance width="560"/>
  <outline>
    <contour>
      <point x="92" y="164" type="line"/>
      <point x="478" y="461" type="line"/>
      <point x="470" y="509" type="line"/>
      <point x="81" y="212" type="line"/>
    </contour>
    <contour>
      <point x="224" y="-11" type="curve"/>
      <point x="423" y="-11"/>
      <point x="529" y="270"/>
      <point x="529" y="462" type="curve" smooth="yes"/>
      <point x="529" y="605"/>
      <point x="466" y="683"/>
      <point x="339" y="683" type="curve" smooth="yes"/>
      <point x="140.0" y="683.0"/>
      <point x="34" y="402"/>
      <point x="34" y="210" type="curve" smooth="yes"/>
      <point x="34" y="67"/>
      <point x="97" y="-11"/>
    </contour>
    <contour>
      <point x="225" y="38" type="curve" smooth="yes"/>
      <point x="154.0" y="38.0"/>
      <point x="124.0" y="84"/>
      <point x="124" y="172" type="curve" smooth="yes"/>
      <point x="124" y="218"/>
      <point x="132" y="278"/>
      <point x="151" y="356" type="curve" smooth="yes"/>
      <point x="196" y="546"/>
      <point x="249.0" y="634.0"/>
      <point x="338" y="634" type="curve" smooth="yes"/>
      <point x="409.0" y="634.0"/>
      <point x="439.0" y="589"/>
      <point x="439" y="500" type="curve" smooth="yes"/>
      <point x="439" y="454"/>
      <point x="433" y="394"/>
      <point x="414" y="316" type="curve" smooth="yes"/>
      <point x="369" y="126"/>
      <point x="314.0" y="38.0"/>
    </contour>
  </outline>
</glyph>
<glyph name="zero.slashold" format="2">
  <advance width="560"/>
  <outline>
    <contour>
      <point x="92" y="147" type="line"/>
      <point x="478" y="444" type="line"/>
      <point x="470" y="492" type="line"/>
      <point x="81" y="195" type="line"/>
    </contour>
    <contour>
      <point x="518" y="418" type="curve" smooth="yes"/>
      <point x="518.0" y="564.0"/>
      <point x="446" y="649"/>
      <point x="322" y="649" type="curve"/>
      <point x="130.0" y="649.0"/>
      <point x="43" y="411"/>
      <point x="43" y="220" type="curve" smooth="yes"/>
      <point x="43" y="74.0"/>
      <point x="115" y="-11"/>
      <point x="239" y="-11" type="curve"/>
      <point x="431.0" y="-11.0"/>
      <point x="518" y="227"/>
    </contour>
    <contour>
      <point x="133" y="187" type="curve" smooth="yes"/>
      <point x="133.0" y="230.0"/>
      <point x="140" y="280"/>
      <point x="151" y="337" type="curve" smooth="yes"/>
      <point x="187" y="515"/>
      <point x="229.0" y="600.0"/>
      <point x="314" y="600" type="curve" smooth="yes"/>
      <point x="395.0" y="600.0"/>
      <point x="428.0" y="552"/>
      <point x="428" y="451" type="curve" smooth="yes"/>
      <point x="428.0" y="408.0"/>
      <point x="422" y="358"/>
      <point x="410" y="301" type="curve" smooth="yes"/>
      <point x="375" y="123"/>
      <point x="332.0" y="38.0"/>
      <point x="247" y="38" type="curve" smooth="yes"/>
      <point x="166.0" y="38.0"/>
      <point x="133.0" y="86"/>
    </contour>
  </outline>
</glyph>
